<svg xmlns="http://www.w3.org/2000/svg" width="15" height="15" viewBox="0 0 15 15">
	<defs>
	<style>
		.cls-1{
			fill: #14b28d;
			fill-rule: evenodd;
		}
	</style>
  </defs>
	<path id="phone" class="cls-1" d="M235.959,34a1.014,1.014,0,0,1,.6.5c0.592,0.918,1.2,1.83,1.792,2.746a0.707,0.707,0,0,1-.085.972,6.284,6.284,0,0,1-.587.481c-0.162.125-.337,0.234-0.5,0.363a1.183,1.183,0,0,0-.413,1.337,5.4,5.4,0,0,0,.681,1.371,8.93,8.93,0,0,0,3.623,3.275,3.525,3.525,0,0,0,.614.228,0.981,0.981,0,0,0,1.1-.362c0.161-.2.3-0.422,0.449-0.633a5.176,5.176,0,0,1,.331-0.444,0.861,0.861,0,0,1,1.219-.154q1.225,0.8,2.446,1.6c0.094,0.062.185,0.13,0.282,0.185a0.94,0.94,0,0,1,.49.586v0.381a0.155,0.155,0,0,0-.019.037,4.653,4.653,0,0,1-.88,1.864,1.063,1.063,0,0,1-.653.488A12.725,12.725,0,0,1,244.9,49a9.879,9.879,0,0,1-5.041-1.355,14.09,14.09,0,0,1-5.088-4.807,10.924,10.924,0,0,1-1.664-4.246c-0.042-.27-0.07-0.543-0.1-0.813V36.813c0.008-.042.019-0.084,0.026-0.126,0.041-.3.081-0.608,0.123-0.912a1.065,1.065,0,0,1,.379-0.735,6.788,6.788,0,0,1,.7-0.507A4.532,4.532,0,0,1,235.607,34h0.352Z" transform="translate(-233 -34)"/>
</svg>