<svg xmlns="http://www.w3.org/2000/svg" viewBox="0 0 64 64" width="512" height="512">
	<defs>
		<linearGradient id="gradient" x1="0%" y1="0%" x2="0%" y2="100%">
			<stop offset="0%" style="stop-color:#33e380;stop-opacity:1" />
			<stop offset="100%" style="stop-color:#14a48d;stop-opacity:1" />
		</linearGradient>
    </defs>
	<g id="cpu_chip" data-name="cpu chip">
		<path fill="url(#gradient)" d="M61,10H58V7.816a3,3,0,1,0-2,0V11a1,1,0,0,0,1,1h3V31H48a1,1,0,0,0-1,1v5H43V36a1,1,0,0,0-1-1H41V30.5l3.6-2.7A1,1,0,0,0,45,27V15h3a1,1,0,0,0,1-1V7.816a3,3,0,1,0-2,0V13H44a1,1,0,0,0-1,1V26.5l-3.6,2.7a1,1,0,0,0-.4.8v5H37V21h2a1,1,0,0,0,1-1V7.816a3,3,0,1,0-2,0V19H36a1,1,0,0,0-1,1V35H33V10.816a3,3,0,1,0-2,0V35H29V20a1,1,0,0,0-1-1H26V7.816a3,3,0,1,0-2,0V20a1,1,0,0,0,1,1h2V35H25V30a1,1,0,0,0-.4-.8L21,26.5V14a1,1,0,0,0-1-1H17V7.816a3,3,0,1,0-2,0V14a1,1,0,0,0,1,1h3V27a1,1,0,0,0,.4.8L23,30.5V35H22a1,1,0,0,0-1,1v1H17V32a1,1,0,0,0-1-1H4V12H7a1,1,0,0,0,1-1V7.816a3,3,0,1,0-2,0V10H3a1,1,0,0,0-1,1V32a1,1,0,0,0,1,1H15v5a1,1,0,0,0,1,1h5v2H16v2h5v2H16v2h5v2H2v2H21v2H16v2h5v1a1,1,0,0,0,1,1h1v5h2V57h2v5h2V57h2v5h2V57h2v5h2V57h2v5h2V57h1a1,1,0,0,0,1-1V55h5V53H43V51H62V49H43V47h5V45H43V43h5V41H43V39h5a1,1,0,0,0,1-1V33H61a1,1,0,0,0,1-1V11A1,1,0,0,0,61,10ZM57,4a1,1,0,1,1-1,1A1,1,0,0,1,57,4ZM48,4a1,1,0,1,1-1,1A1,1,0,0,1,48,4ZM39,4a1,1,0,1,1-1,1A1,1,0,0,1,39,4ZM32,7a1,1,0,1,1-1,1A1,1,0,0,1,32,7ZM25,4a1,1,0,1,1-1,1A1,1,0,0,1,25,4ZM16,4a1,1,0,1,1-1,1A1,1,0,0,1,16,4ZM7,4A1,1,0,1,1,6,5,1,1,0,0,1,7,4ZM41,39.586,38.414,37H41ZM23,55V37H35.586L41,42.414V55Z"/>
		<path fill="url(#gradient)" d="M33,41.1V39H31v2.1A5.016,5.016,0,0,0,27.1,45H25v2h2.1A5.016,5.016,0,0,0,31,50.9V53h2V50.9A5.016,5.016,0,0,0,36.9,47H39V45H36.9A5.016,5.016,0,0,0,33,41.1ZM32,49a3,3,0,1,1,3-3A3,3,0,0,1,32,49Z"/>
		<path fill="url(#gradient)" d="M57,54a1,1,0,0,0-1-1H50v2h5v6a1,1,0,0,0,1,1h6V60H57Z"/>
		<path fill="url(#gradient)" d="M55,39v6H50v2h6a1,1,0,0,0,1-1V40h5V38H56A1,1,0,0,0,55,39Z"/>
		<path fill="url(#gradient)" d="M7,54v6H2v2H8a1,1,0,0,0,1-1V55h5V53H8A1,1,0,0,0,7,54Z"/>
		<path fill="url(#gradient)" d="M7,46a1,1,0,0,0,1,1h6V45H9V39a1,1,0,0,0-1-1H2v2H7Z"/>
	</g>
</svg>