<svg height="496pt" viewBox="0 0 496 496" width="496pt" xmlns="http://www.w3.org/2000/svg">
	<defs>
		<linearGradient id="gradient" x1="0%" y1="0%" x2="0%" y2="100%">
			<stop offset="0%" style="stop-color:#33e380;stop-opacity:1" />
			<stop offset="100%" style="stop-color:#14a48d;stop-opacity:1" />
		</linearGradient>
    </defs>
	<path fill="url(#gradient)" d="m456 112h-24v-72c0-22.054688-17.945312-40-40-40h-288c-22.054688 0-40 17.945312-40 40v72h-24c-22.054688 0-40 17.945312-40 40v256c0 22.054688 17.945312 40 40 40h104v32h-32v16h272v-16h-32v-32h104c22.054688 0 40-17.945312 40-40v-256c0-22.054688-17.945312-40-40-40zm-376-72c0-13.230469 10.769531-24 24-24h288c13.230469 0 24 10.769531 24 24v208c0 13.230469-10.769531 24-24 24h-112v41.871094l-69.785156-41.871094h-106.214844c-13.230469 0-24-10.769531-24-24zm-40 88h24v120c0 22.054688 17.945312 40 40 40h101.785156l90.214844 54.128906v-54.128906h96c22.054688 0 40-17.945312 40-40v-120h24c13.230469 0 24 10.769531 24 24v216h-464v-216c0-13.230469 10.769531-24 24-24zm296 352h-176v-32h176zm120-48h-416c-13.230469 0-24-10.769531-24-24v-24h464v24c0 13.230469-10.769531 24-24 24zm0 0"/>
	<path fill="url(#gradient)" d="m192 400h16v16h-16zm0 0"/>
	<path fill="url(#gradient)" d="m224 400h48v16h-48zm0 0"/>
	<path fill="url(#gradient)" d="m288 400h16v16h-16zm0 0"/>
	<path fill="url(#gradient)" d="m152 224h40v-96h-16v-8c0-39.695312 32.296875-72 72-72s72 32.304688 72 72v8h-16v96h16v8c0 4.40625-3.585938 8-8 8h-41.472656c-3.3125-9.289062-12.113282-16-22.527344-16-13.230469 0-24 10.769531-24 24s10.769531 24 24 24c10.414062 0 19.214844-6.710938 22.527344-16h41.472656c13.230469 0 24-10.769531 24-24v-8h8c22.054688 0 40-17.945312 40-40v-16c0-22.054688-17.945312-40-40-40h-8v-8c0-48.519531-39.480469-88-88-88s-88 39.480469-88 88v8h-8c-22.054688 0-40 17.945312-40 40v16c0 22.054688 17.945312 40 40 40zm96 32c-4.414062 0-8-3.59375-8-8s3.585938-8 8-8 8 3.59375 8 8-3.585938 8-8 8zm120-88v16c0 10.414062-6.710938 19.214844-16 22.527344v-46.527344h-16v48h-16v-64h24c13.230469 0 24 10.769531 24 24zm-240 0c0-13.230469 10.769531-24 24-24h24v64h-16v-48h-16v46.527344c-9.289062-3.3125-16-12.113282-16-22.527344zm0 0"/>
	<path fill="url(#gradient)" d="m144 336h16v16h-16zm0 0"/>
	<path fill="url(#gradient)" d="m32 336h96v16h-96zm0 0"/>
	<path fill="url(#gradient)" d="m32 304h128v16h-128zm0 0"/>
	<path fill="url(#gradient)" d="m448 336h16v16h-16zm0 0"/>
	<path fill="url(#gradient)" d="m336 336h96v16h-96zm0 0"/>
	<path fill="url(#gradient)" d="m336 304h128v16h-128zm0 0"/>
</svg>