<svg height="496pt" viewBox="0 0 496 496" width="496pt" xmlns="http://www.w3.org/2000/svg">
	<defs>
		<linearGradient id="gradient" x1="0%" y1="0%" x2="0%" y2="100%">
			<stop offset="0%" style="stop-color:#33e380;stop-opacity:1" />
			<stop offset="100%" style="stop-color:#14a48d;stop-opacity:1" />
		</linearGradient>
    </defs>
	<path fill="url(#gradient)" d="m456 0h-16c-4.425781 0-8 3.585938-8 8v56h-392c-22.054688 0-40 17.945312-40 40v352c0 22.054688 17.945312 40 40 40h16c4.425781 0 8-3.574219 8-8v-56h392c22.054688 0 40-17.945312 40-40v-352c0-22.054688-17.945312-40-40-40zm-408 480h-8c-13.230469 0-24-10.769531-24-24v-320.015625c6.6875 5.023437 15 8.015625 24 8.015625h8zm408-64h-392v-280c0-4.414062-3.574219-8-8-8h-16c-13.230469 0-24-10.769531-24-24s10.769531-24 24-24h392v280c0 4.425781 3.574219 8 8 8h16c13.230469 0 24 10.769531 24 24s-10.769531 24-24 24zm24-55.984375c-6.6875-5.03125-15-8.015625-24-8.015625h-8v-336h8c13.230469 0 24 10.769531 24 24zm0 0"/>
	<path fill="url(#gradient)" d="m408 192h-96c-4.425781 0-8 3.585938-8 8v8h-24c-4.425781 0-8 3.585938-8 8v32h-80v-16h8c4.425781 0 8-3.585938 8-8v-9.472656c0-6.710938 3.519531-13.207032 9.671875-17.839844 14.183594-10.679688 22.328125-26.96875 22.328125-44.6875 0-30.878906-25.128906-56-56-56s-56 25.121094-56 56c0 17.71875 8.144531 34.007812 22.328125 44.6875 6.152344 4.632812 9.671875 11.136719 9.671875 17.839844v9.472656c0 4.414062 3.574219 8 8 8h8v24c0 4.425781 3.574219 8 8 8h88v104h-32v-72c0-4.425781-3.574219-8-8-8h-40v-8c0-4.425781-3.574219-8-8-8h-96c-4.425781 0-8 3.574219-8 8v32c0 4.425781 3.574219 8 8 8h96c4.425781 0 8-3.574219 8-8v-8h32v64h-32v-8c0-4.425781-3.574219-8-8-8h-96c-4.425781 0-8 3.574219-8 8v32c0 4.425781 3.574219 8 8 8h96c4.425781 0 8-3.574219 8-8v-8h88c4.425781 0 8-3.574219 8-8v-72h16v8c0 4.425781 3.574219 8 8 8h96c4.425781 0 8-3.574219 8-8v-32c0-4.425781-3.574219-8-8-8h-96c-4.425781 0-8 3.574219-8 8v8h-16v-64h16v8c0 4.414062 3.574219 8 8 8h96c4.425781 0 8-3.585938 8-8v-32c0-4.414062-3.574219-8-8-8zm-248.046875-8.089844c-10.136719-7.628906-15.953125-19.261718-15.953125-31.910156 0-22.054688 17.945312-40 40-40s40 17.945312 40 40c0 12.648438-5.816406 24.28125-15.953125 31.910156-10.199219 7.675782-16.046875 18.832032-16.046875 30.617188v1.472656h-16v-1.472656c0-11.785156-5.847656-22.941406-16.046875-30.617188zm16.046875 120.089844h-80v-16h80zm0 80h-80v-16h80zm144-96h80v16h-80zm80-64h-80v-16h80zm0 0"/>
	<path fill="url(#gradient)" d="m254.050781 128.226562 32-7.988281 3.878907 15.523438-32.003907 7.988281zm0 0"/>
	<path fill="url(#gradient)" d="m254.039062 175.765625 3.878907-15.523437 32 8-3.882813 15.523437zm0 0"/><path d="m78.046875 135.761719 3.878906-15.523438 32 8-3.878906 15.519531zm0 0"/><path d="m78.054688 168.226562 32.003906-7.988281 3.875 15.523438-32.003906 7.988281zm0 0"/>
</svg>