<svg height="512pt" viewBox="0 -3 512 512" width="512pt" xmlns="http://www.w3.org/2000/svg">
	<defs>
		<linearGradient id="gradient" x1="0%" y1="0%" x2="0%" y2="100%">
			<stop offset="0%" style="stop-color:#33e380;stop-opacity:1" />
			<stop offset="100%" style="stop-color:#14a48d;stop-opacity:1" />
		</linearGradient>
    </defs>
	<path fill="url(#gradient)" d="m365.875 172.632812c-2.09375-5.183593-7.996094-7.6875-13.179688-5.589843-5.183593 2.097656-7.683593 7.996093-5.589843 13.179687l.136719.335938c1.59375 3.941406 5.386718 6.332031 9.390624 6.332031 1.261719 0 2.546876-.238281 3.789063-.742187 5.183594-2.09375 7.6875-7.996094 5.589844-13.179688zm0 0"/><path fill="url(#gradient)" d="m501.875 0h-89.511719c-5.59375 0-10.125 4.53125-10.125 10.125v51.78125h-91.359375v-51.78125c0-5.59375-4.53125-10.125-10.121094-10.125h-89.515624c-5.589844 0-10.121094 4.53125-10.121094 10.125v51.78125h-91.359375v-51.78125c0-5.59375-4.53125-10.125-10.125-10.125h-89.511719c-5.59375 0-10.125 4.53125-10.125 10.125v123.816406c0 5.589844 4.53125 10.121094 10.125 10.121094h89.511719c5.59375 0 10.125-4.53125 10.125-10.121094v-51.789062h35.554687v173.382812c0 5.589844 4.53125 10.121094 10.125 10.121094h45.679688v49.460938c0 5.589843 4.53125 10.125 10.121094 10.125h89.515624c5.589844 0 10.121094-4.535157 10.121094-10.125v-51.785157h35.558594v171.058594c0 5.589844 4.53125 10.121094 10.121094 10.121094h45.679687v51.785156c0 5.589844 4.53125 10.125 10.125 10.125h89.511719c5.59375 0 10.125-4.535156 10.125-10.125v-123.816406c0-5.589844-4.53125-10.121094-10.125-10.121094h-89.511719c-5.59375 0-10.125 4.53125-10.125 10.121094v51.785156h-35.554687v-160.933594h35.554687v51.785157c0 5.589843 4.53125 10.125 10.125 10.125h89.511719c5.59375 0 10.125-4.535157 10.125-10.125v-123.816407c0-5.589843-4.53125-10.121093-10.125-10.121093h-89.511719c-5.59375 0-10.125 4.53125-10.125 10.121093v51.785157h-35.554687v-25.859376c0-5.589843-4.535156-10.121093-10.125-10.121093s-10.121094 4.53125-10.121094 10.121093v25.859376h-35.558594v-51.785157c0-5.589843-4.53125-10.121093-10.121094-10.121093h-89.515624c-5.589844 0-10.121094 4.53125-10.121094 10.121093v54.109375h-35.558594v-163.257812h35.558594v51.789062c0 5.589844 4.53125 10.121094 10.121094 10.121094h89.515624c5.589844 0 10.121094-4.53125 10.121094-10.121094v-51.789062h35.558594v53.8125c0 5.589844 4.53125 10.121094 10.121094 10.121094s10.125-4.53125 10.125-10.121094v-53.8125h35.554687v51.789062c0 5.589844 4.53125 10.121094 10.125 10.121094h89.511719c5.59375 0 10.125-4.53125 10.125-10.121094v-123.816406c0-5.59375-4.53125-10.125-10.125-10.125zm-412.359375 123.816406h-69.269531v-103.570312h69.269531zm402.238281 319.976563h-69.269531v-20.753907h69.269531zm0 42.382812h-69.269531v-22.136719h69.269531zm-69.269531-103.570312h69.269531v20.1875h-69.269531zm69.269531-119.992188h-69.269531v-20.75h69.269531zm0 42.382813h-69.269531v-22.136719h69.269531zm-69.269531-103.570313h69.269531v20.1875h-69.269531zm-201.117187 0h69.265624v103.570313h-69.265624zm69.265624-77.609375h-69.265624v-103.570312h69.265624zm131.851563-63.132812h69.269531v20.75h-69.269531zm0-40.4375h69.269531v20.191406h-69.269531zm69.269531 103.570312h-69.269531v-22.136718h69.269531zm0 0"/>
</svg>